Coordinates
version=1
nRows=18
nColumns=63
inDegrees=yes

Units are S.I. units (second, meters, Newtons, ...)
If the header above contains a line with 'inDegrees', this indicates whether rotational values are in degrees (yes) or radians (no).

endheader
time	pelvis_tilt	pelvis_list	pelvis_rotation	pelvis_tx	pelvis_ty	pelvis_tz	hip_flexion_r	hip_adduction_r	hip_rotation_r	knee_angle_r	knee_angle_r_beta	ankle_angle_r	subtalar_angle_r	mtp_angle_r	hip_flexion_l	hip_adduction_l	hip_rotation_l	knee_angle_l	knee_angle_l_beta	ankle_angle_l	subtalar_angle_l	mtp_angle_l	L5_S1_Flex_Ext	L5_S1_Lat_Bending	L5_S1_axial_rotation	L4_L5_Flex_Ext	L4_L5_Lat_Bending	L4_L5_axial_rotation	L3_L4_Flex_Ext	L3_L4_Lat_Bending	L3_L4_axial_rotation	L2_L3_Flex_Ext	L2_L3_Lat_Bending	L2_L3_axial_rotation	L1_L2_Flex_Ext	L1_L2_Lat_Bending	L1_L2_axial_rotation	L1_T12_Flex_Ext	L1_T12_Lat_Bending	L1_T12_axial_rotation	Abs_r3	Abs_r2	Abs_r1	Abs_t1	Abs_t2	neck_flexion	neck_bending	neck_rotation	arm_flex_r	arm_add_r	arm_rot_r	elbow_flex_r	pro_sup_r	wrist_flex_r	wrist_dev_r	arm_flex_l	arm_add_l	arm_rot_l	elbow_flex_l	pro_sup_l	wrist_flex_l	wrist_dev_l
9.883333	-1.633073	-6.447464	94.651535	0.256051	0.902101	0.574838	-0.367004	-0.002604	5.686060	5.366673	0.093666	30.332025	-14.093703	0.000000	-2.567606	-0.366450	12.692365	0.652659	0.011391	31.495519	-4.151750	0.000000	0.122100	-0.095552	0.580169	0.226751	-0.127084	0.616430	0.200598	-0.232325	0.616430	0.139548	-0.232325	0.507648	0.113382	-0.194850	0.471387	0.069768	-0.148010	0.435127	0.872146	-1.080904	3.226727	0.000000	0.000000	20.390875	2.071936	16.783592	-8.114313	-15.881127	11.400470	116.423570	89.117956	0.972938	14.771960	-9.989237	-13.691779	-3.878280	109.398855	87.369145	-2.647794	20.305941
9.900000	-1.679779	-6.357328	94.789646	0.255598	0.902113	0.574096	-0.429446	-0.068394	5.599848	5.508477	0.096141	30.637427	-14.034961	0.000000	-2.684462	-0.316262	12.881902	0.665557	0.011616	31.564845	-4.203159	0.000000	0.125895	-0.099920	0.626872	0.233799	-0.132894	0.666052	0.206832	-0.242946	0.666052	0.143885	-0.242946	0.548513	0.116906	-0.203757	0.509334	0.071936	-0.154776	0.470154	0.899253	-1.130316	3.486475	0.000000	0.000000	19.615184	2.413206	17.835981	-8.531762	-16.134023	11.698184	116.544157	89.448806	2.746714	15.468827	-10.000799	-13.809012	-3.434888	109.248471	87.462097	-2.564283	20.313548
9.916667	-1.714445	-6.274061	94.986148	0.255044	0.902113	0.573547	-0.493394	-0.125301	5.483035	5.632095	0.098299	30.847895	-14.045549	0.000000	-2.782079	-0.278311	13.008580	0.682023	0.011904	31.638333	-4.092988	0.000000	0.128283	-0.103706	0.675010	0.238235	-0.137930	0.717198	0.210757	-0.252152	0.717198	0.146615	-0.252152	0.590634	0.119124	-0.211478	0.548446	0.073301	-0.160641	0.506258	0.916316	-1.173148	3.754205	0.000000	0.000000	18.799317	2.732659	18.648215	-8.927805	-16.363564	11.972513	116.690019	89.593191	4.379438	16.259945	-9.967372	-13.928723	-2.929765	109.084114	87.526378	-2.523963	20.264830
9.933333	-1.726827	-6.197153	95.279680	0.254324	0.902109	0.573223	-0.551167	-0.170165	5.073143	5.759577	0.100524	31.045606	-13.805671	0.000000	-2.851666	-0.264994	12.833615	0.705746	0.012318	31.781406	-3.456266	0.000000	0.129495	-0.105776	0.719991	0.240485	-0.140682	0.764990	0.212747	-0.257184	0.764990	0.148000	-0.257184	0.629992	0.120249	-0.215698	0.584992	0.073993	-0.163847	0.539993	0.924970	-1.196559	4.004372	0.000000	0.000000	17.934903	3.007366	19.147467	-9.309407	-16.569023	12.208072	116.872062	89.485026	5.747126	17.148299	-9.876843	-14.036488	-2.362661	108.902647	87.594152	-2.520631	20.188715
9.950000	-1.725308	-6.120028	95.660671	0.253446	0.902107	0.573113	-0.625025	-0.199450	4.724225	5.863186	0.102332	31.088360	-13.803394	0.000000	-2.911464	-0.262488	13.076225	0.720647	0.012578	31.782929	-3.323018	0.000000	0.128469	-0.106841	0.768110	0.238581	-0.142099	0.816117	0.211062	-0.259774	0.816117	0.146828	-0.259774	0.672096	0.119297	-0.217871	0.624089	0.073407	-0.165497	0.576082	0.917644	-1.208609	4.271996	0.000000	0.000000	17.036185	3.220422	19.306829	-9.713292	-16.727615	12.349264	117.097618	89.172202	6.843631	18.063148	-9.713227	-14.149938	-1.701745	108.666211	87.602196	-2.511422	19.954852
9.966667	-1.705220	-6.043092	96.131139	0.252404	0.902109	0.573203	-0.708940	-0.210564	4.313662	5.955451	0.103942	31.027665	-13.860631	0.000000	-2.956588	-0.277997	13.374975	0.732171	0.012779	31.754293	-3.200198	0.000000	0.125737	-0.106266	0.821529	0.233507	-0.141334	0.872875	0.206574	-0.258376	0.872875	0.143705	-0.258376	0.718838	0.116760	-0.216698	0.667492	0.071846	-0.164607	0.616147	0.898129	-1.202107	4.569098	0.000000	0.000000	16.120965	3.343069	19.103999	-10.168518	-16.829449	12.366078	117.384424	88.693045	7.586468	19.005781	-9.472284	-14.262953	-0.943299	108.371263	87.550639	-2.489164	19.578051
9.983333	-1.668101	-5.963750	96.686873	0.251212	0.902120	0.573466	-0.807703	-0.202088	3.857871	6.033216	0.105299	30.862275	-13.987515	0.000000	-2.990994	-0.311433	13.685871	0.740184	0.012919	31.714254	-3.035580	0.000000	0.121151	-0.104028	0.881019	0.224989	-0.138358	0.936083	0.199038	-0.252935	0.936083	0.138463	-0.252935	0.770892	0.112501	-0.212135	0.715828	0.069225	-0.161140	0.660764	0.865367	-1.176791	4.899965	0.000000	0.000000	15.209757	3.346841	18.549261	-10.680216	-16.881021	12.272974	117.732710	88.074120	7.842440	19.928797	-9.158146	-14.379239	-0.092809	108.013723	87.424098	-2.425093	19.048914
10.000000	-1.619452	-5.882298	97.304789	0.249903	0.902134	0.573828	-0.919970	-0.179473	3.377754	6.104401	0.106542	30.623034	-14.165540	0.000000	-3.024316	-0.355478	14.038954	0.741157	0.012936	31.649380	-2.924321	0.000000	0.114897	-0.100747	0.945089	0.213374	-0.133994	1.004157	0.188763	-0.244956	1.004157	0.131315	-0.244956	0.826953	0.106693	-0.205443	0.767885	0.065652	-0.156057	0.708817	0.820694	-1.139671	5.256301	0.000000	0.000000	14.317062	3.283647	17.755343	-11.235205	-16.871914	12.058615	118.114778	87.351979	7.710026	20.784204	-8.812914	-14.492098	0.804672	107.627024	87.217264	-2.352582	18.396757
10.016667	-1.555033	-5.795027	97.994284	0.248482	0.902169	0.574262	-1.052519	-0.133977	2.867303	6.159284	0.107500	30.313387	-14.391296	0.000000	-3.057575	-0.417987	14.397072	0.738263	0.012885	31.577913	-2.797868	0.000000	0.106678	-0.096029	1.012902	0.198112	-0.127719	1.076208	0.175261	-0.233486	1.076208	0.121922	-0.233486	0.886289	0.099061	-0.195823	0.822983	0.060956	-0.148749	0.759676	0.761991	-1.086303	5.633455	0.000000	0.000000	13.447515	3.116687	16.701469	-11.826566	-16.819847	11.749712	118.512354	86.551297	7.080870	21.484729	-8.431464	-14.599941	1.745496	107.202195	86.959999	-2.232786	17.622517
10.033333	-1.479779	-5.707210	98.724380	0.246983	0.902222	0.574710	-1.200044	-0.071012	2.368623	6.196913	0.108157	29.956008	-14.655833	0.000000	-3.092151	-0.490699	14.786183	0.730489	0.012749	31.488277	-2.721383	0.000000	0.096911	-0.090562	1.084904	0.179973	-0.120447	1.152711	0.159215	-0.220192	1.152711	0.110760	-0.220192	0.949291	0.089992	-0.184674	0.881485	0.055375	-0.140281	0.813678	0.692225	-1.024455	6.033911	0.000000	0.000000	12.618485	2.899651	15.497762	-12.432544	-16.740616	11.370685	118.899277	85.601886	6.017016	21.982323	-8.049736	-14.680708	2.679426	106.767299	86.652814	-2.083096	16.761701
10.050000	-1.391987	-5.620677	99.480013	0.245440	0.902299	0.575126	-1.360699	0.012387	1.891092	6.209825	0.108382	29.573711	-14.942661	0.000000	-3.127831	-0.576047	15.198648	0.719136	0.012551	31.383087	-2.688997	0.000000	0.085702	-0.084534	1.160665	0.159158	-0.112430	1.233207	0.140800	-0.205536	1.233207	0.097949	-0.205536	1.015582	0.079583	-0.172382	0.943041	0.048970	-0.130943	0.870499	0.612163	-0.956266	6.455273	0.000000	0.000000	11.832700	2.599264	14.142656	-13.048093	-16.650936	10.958178	119.260019	84.593406	4.554173	22.215030	-7.682148	-14.725905	3.579027	106.332646	86.337694	-1.899055	15.824264
10.066667	-1.293851	-5.539917	100.235025	0.243892	0.902406	0.575456	-1.528177	0.112956	1.457742	6.196318	0.108146	29.203790	-15.229152	0.000000	-3.164527	-0.670609	15.616916	0.703579	0.012280	31.268411	-2.685624	0.000000	0.073304	-0.078366	1.238392	0.136133	-0.104226	1.315792	0.120431	-0.190538	1.315792	0.083779	-0.190538	1.083593	0.068070	-0.159803	1.006194	0.041886	-0.121388	0.928794	0.523602	-0.886488	6.887565	0.000000	0.000000	11.101794	2.237221	12.714371	-13.659332	-16.567607	10.557070	119.586106	83.676124	2.799774	22.179618	-7.355760	-14.728075	4.403329	105.915654	86.039861	-1.685378	14.824734
10.083333	-1.181327	-5.469774	100.964260	0.242385	0.902543	0.575678	-1.693348	0.232185	1.098123	6.153741	0.107403	28.881701	-15.508335	0.000000	-3.197259	-0.777269	16.047478	0.684675	0.011950	31.146158	-2.721044	0.000000	0.059967	-0.072252	1.319148	0.111366	-0.096096	1.401595	0.098521	-0.175674	1.401595	0.068537	-0.175674	1.154255	0.055686	-0.147337	1.071808	0.034265	-0.111919	0.989361	0.428341	-0.817332	7.336708	0.000000	0.000000	10.464678	1.798023	11.203509	-14.256838	-16.517722	10.220624	119.893159	82.942081	0.791829	21.944074	-7.071548	-14.689514	5.138920	105.521563	85.783778	-1.420467	13.807203
10.100000	-1.056549	-5.417868	101.676350	0.240922	0.902698	0.575744	-1.852531	0.367784	0.766058	6.073783	0.106008	28.621430	-15.766512	0.000000	-3.218421	-0.894082	16.452666	0.660574	0.011529	31.032356	-2.718694	0.000000	0.045850	-0.066430	1.387034	0.085147	-0.088353	1.473724	0.075326	-0.161519	1.473724	0.052402	-0.161519	1.213655	0.042576	-0.135465	1.126965	0.026199	-0.102901	1.040276	0.327500	-0.751475	7.714269	0.000000	0.000000	9.978034	1.341605	9.756488	-14.803938	-16.486614	9.955009	120.171943	82.449804	-1.003265	21.619995	-6.899940	-14.598925	5.707570	105.204121	85.537768	-1.155351	12.775826
10.116667	-0.925289	-5.387573	102.322176	0.239533	0.902849	0.575649	-1.995326	0.506790	0.523014	5.970414	0.104203	28.470245	-15.982152	0.000000	-3.229115	-1.010521	16.873296	0.632934	0.011047	30.925182	-2.785299	0.000000	0.031582	-0.060590	1.460693	0.058651	-0.080584	1.551987	0.051886	-0.147318	1.551987	0.036095	-0.147318	1.278107	0.029327	-0.123555	1.186813	0.018046	-0.093854	1.095520	0.225587	-0.685404	8.123938	0.000000	0.000000	9.648096	0.819186	8.344498	-15.370406	-16.445129	9.708609	120.498625	82.186719	-2.578602	21.398106	-6.784475	-14.456325	6.169216	104.933075	85.376405	-0.820970	11.801229
10.133333	-0.791881	-5.378321	102.917674	0.238251	0.903000	0.575408	-2.124951	0.649269	0.319943	5.835972	0.101857	28.396688	-16.174108	0.000000	-3.224944	-1.126323	17.234392	0.604347	0.010548	30.840313	-2.789993	0.000000	0.016771	-0.056195	1.524019	0.031145	-0.074739	1.619270	0.027553	-0.136633	1.619270	0.019167	-0.136633	1.333516	0.015573	-0.114593	1.238265	0.009583	-0.087046	1.143014	0.119792	-0.635690	8.476136	0.000000	0.000000	9.525658	0.292171	7.024332	-15.893954	-16.444411	9.643750	120.790045	82.173144	-4.080661	20.922601	-6.779817	-14.285376	6.483000	104.762110	85.211216	-0.545266	10.905867
10.150000	-0.649692	-5.391208	103.514821	0.237028	0.903148	0.575073	-2.239016	0.801558	0.070932	5.675461	0.099055	28.379085	-16.318402	0.000000	-3.194362	-1.253206	17.560091	0.574265	0.010023	30.789339	-2.694431	0.000000	0.002286	-0.052169	1.565472	0.004245	-0.069385	1.663315	0.003755	-0.126844	1.663315	0.002612	-0.126844	1.369788	0.002123	-0.106383	1.271946	0.001306	-0.080810	1.174104	0.016327	-0.590146	8.706688	0.000000	0.000000	9.565492	-0.173653	5.905638	-16.346435	-16.459645	9.711360	121.059246	82.397891	-5.274961	20.425580	-6.880309	-14.110491	6.669454	104.692985	85.036274	-0.368549	10.122265
10.166667	-0.512552	-5.425503	104.076843	0.235874	0.903269	0.574686	-2.332937	0.945128	-0.181281	5.502684	0.096040	28.423691	-16.427486	0.000000	-3.141883	-1.372616	17.832895	0.548732	0.009577	30.773804	-2.538136	0.000000	-0.012580	-0.049726	1.604736	-0.023363	-0.066135	1.705032	-0.020668	-0.120903	1.705032	-0.014378	-0.120903	1.404144	-0.011682	-0.101400	1.303848	-0.007188	-0.077025	1.203552	-0.089860	-0.562505	8.925058	0.000000	0.000000	9.774121	-0.602428	4.887247	-16.794639	-16.469480	9.865246	121.320558	82.839975	-6.335816	19.767350	-7.015808	-13.945736	6.815007	104.702453	84.846215	-0.268604	9.514711
